{
  "accessors": [
    {
      "bufferView": 2,
      "componentType": 5126,
      "count": 1398,
      "max": [
        41.30057907104492,
        41.52299880981445,
        175.59503173828125
      ],
      "min": [
        -61.8665657043457,
        -58.72782516479492,
        0.09087885171175003
      ],
      "type": "VEC3"
    },
    {
      "bufferView": 2,
      "byteOffset": 16776,
      "componentType": 5126,
      "count": 1398,
      "max": [
        0.9895153045654297,
        0.9989352226257324,
        0.9573071599006653
      ],
      "min": [
        -0.9935770034790039,
        -0.981281042098999,
        -0.9019405245780945
      ],
      "type": "VEC3"
    },
    {
      "bufferView": 1,
      "componentType": 5126,
      "count": 1398,
      "max": [
        1.0,
        1.0
      ],
      "min": [
        0.0,
        -1.0
      ],
      "type": "VEC2"
    },
    {
      "bufferView": 1,
      "byteOffset": 11184,
      "componentType": 5126,
      "count": 1398,
      "max": [
        1.0,
        1.0
      ],
      "min": [
        0.0,
        -1.0
      ],
      "type": "VEC2"
    },
    {
      "bufferView": 1,
      "byteOffset": 22368,
      "componentType": 5126,
      "count": 1398,
      "max": [
        1.0,
        1.0
      ],
      "min": [
        0.0,
        -1.0
      ],
      "type": "VEC2"
    },
    {
      "bufferView": 0,
      "componentType": 5125,
      "count": 6930,
      "type": "SCALAR"
    },
    {
      "bufferView": 2,
      "byteOffset": 33552,
      "componentType": 5126,
      "count": 2508,
      "max": [
        49.995094299316406,
        50.09955978393555,
        192.8256378173828
      ],
      "min": [
        -72.4881820678711,
        -67.85497283935547,
        52.05946731567383
      ],
      "type": "VEC3"
    },
    {
      "bufferView": 2,
      "byteOffset": 63648,
      "componentType": 5126,
      "count": 2508,
      "max": [
        0.9869644045829773,
        0.9968681931495667,
        0.9919438362121582
      ],
      "min": [
        -0.9953328967094421,
        -0.9970998764038086,
        -0.9941118359565735
      ],
      "type": "VEC3"
    },
    {
      "bufferView": 1,
      "byteOffset": 33552,
      "componentType": 5126,
      "count": 2508,
      "max": [
        1.0,
        0.9950299859046936
      ],
      "min": [
        0.0,
        0.0
      ],
      "type": "VEC2"
    },
    {
      "bufferView": 1,
      "byteOffset": 53616,
      "componentType": 5126,
      "count": 2508,
      "max": [
        1.0,
        0.9950299859046936
      ],
      "min": [
        0.0,
        0.0
      ],
      "type": "VEC2"
    },
    {
      "bufferView": 1,
      "byteOffset": 73680,
      "componentType": 5126,
      "count": 2508,
      "max": [
        1.0,
        0.9950299859046936
      ],
      "min": [
        0.0,
        0.0
      ],
      "type": "VEC2"
    },
    {
      "bufferView": 0,
      "byteOffset": 27720,
      "componentType": 5125,
      "count": 11640,
      "type": "SCALAR"
    },
    {
      "bufferView": 2,
      "byteOffset": 93744,
      "componentType": 5126,
      "count": 1912,
      "max": [
        72.45519256591797,
        69.52387237548828,
        211.68080139160156
      ],
      "min": [
        -99.8248519897461,
        -97.82598876953125,
        60.36224365234375
      ],
      "type": "VEC3"
    },
    {
      "bufferView": 2,
      "byteOffset": 116688,
      "componentType": 5126,
      "count": 1912,
      "max": [
        0.9991640448570251,
        0.998609721660614,
        0.993965744972229
      ],
      "min": [
        -0.997657060623169,
        -0.9996121525764465,
        -0.9879141449928284
      ],
      "type": "VEC3"
    },
    {
      "bufferView": 1,
      "byteOffset": 93744,
      "componentType": 5126,
      "count": 1912,
      "max": [
        1.0,
        0.939329981803894
      ],
      "min": [
        0.0,
        0.0
      ],
      "type": "VEC2"
    },
    {
      "bufferView": 1,
      "byteOffset": 109040,
      "componentType": 5126,
      "count": 1912,
      "max": [
        1.0,
        0.939329981803894
      ],
      "min": [
        0.0,
        0.0
      ],
      "type": "VEC2"
    },
    {
      "bufferView": 1,
      "byteOffset": 124336,
      "componentType": 5126,
      "count": 1912,
      "max": [
        1.0,
        0.939329981803894
      ],
      "min": [
        0.0,
        0.0
      ],
      "type": "VEC2"
    },
    {
      "bufferView": 0,
      "byteOffset": 74280,
      "componentType": 5125,
      "count": 7218,
      "type": "SCALAR"
    },
    {
      "bufferView": 2,
      "byteOffset": 139632,
      "componentType": 5126,
      "count": 3371,
      "max": [
        74.80108642578125,
        72.17919921875,
        218.2461395263672
      ],
      "min": [
        -103.77043914794922,
        -101.8565444946289,
        69.42572021484375
      ],
      "type": "VEC3"
    },
    {
      "bufferView": 2,
      "byteOffset": 180084,
      "componentType": 5126,
      "count": 3371,
      "max": [
        0.9994789361953735,
        0.999823272228241,
        0.8026893138885498
      ],
      "min": [
        -0.9986279606819153,
        -0.9991850852966309,
        -0.9155972599983215
      ],
      "type": "VEC3"
    },
    {
      "bufferView": 1,
      "byteOffset": 139632,
      "componentType": 5126,
      "count": 3371,
      "max": [
        1.0,
        1.0
      ],
      "min": [
        0.0,
        0.0
      ],
      "type": "VEC2"
    },
    {
      "bufferView": 1,
      "byteOffset": 166600,
      "componentType": 5126,
      "count": 3371,
      "max": [
        1.0,
        1.0
      ],
      "min": [
        0.0,
        0.0
      ],
      "type": "VEC2"
    },
    {
      "bufferView": 1,
      "byteOffset": 193568,
      "componentType": 5126,
      "count": 3371,
      "max": [
        1.0,
        1.0
      ],
      "min": [
        0.0,
        0.0
      ],
      "type": "VEC2"
    },
    {
      "bufferView": 0,
      "byteOffset": 103152,
      "componentType": 5125,
      "count": 12837,
      "type": "SCALAR"
    },
    {
      "bufferView": 2,
      "byteOffset": 220536,
      "componentType": 5126,
      "count": 2655,
      "max": [
        88.94652557373047,
        82.72364044189453,
        218.97293090820313
      ],
      "min": [
        -112.28533935546875,
        -112.23999786376953,
        44.45741653442383
      ],
      "type": "VEC3"
    },
    {
      "bufferView": 2,
      "byteOffset": 252396,
      "componentType": 5126,
      "count": 2655,
      "max": [
        0.9993539452552795,
        0.9942054152488708,
        0.7536413073539734
      ],
      "min": [
        -0.9972231984138489,
        -0.9988670349121094,
        -0.9998326897621155
      ],
      "type": "VEC3"
    },
    {
      "bufferView": 3,
      "componentType": 5126,
      "count": 2655,
      "max": [
        0.999576985836029,
        0.9972632527351379,
        0.9990910887718201,
        -1.0
      ],
      "min": [
        -0.999932050704956,
        -0.9995432496070862,
        -0.9897537231445313,
        -1.0
      ],
      "type": "VEC4"
    },
    {
      "bufferView": 1,
      "byteOffset": 220536,
      "componentType": 5126,
      "count": 2655,
      "max": [
        1.0,
        1.0
      ],
      "min": [
        0.0,
        0.0
      ],
      "type": "VEC2"
    },
    {
      "bufferView": 1,
      "byteOffset": 241776,
      "componentType": 5126,
      "count": 2655,
      "max": [
        1.0,
        1.0
      ],
      "min": [
        0.0,
        0.0
      ],
      "type": "VEC2"
    },
    {
      "bufferView": 1,
      "byteOffset": 263016,
      "componentType": 5126,
      "count": 2655,
      "max": [
        1.0,
        1.0
      ],
      "min": [
        0.0,
        0.0
      ],
      "type": "VEC2"
    },
    {
      "bufferView": 1,
      "byteOffset": 284256,
      "componentType": 5126,
      "count": 2655,
      "max": [
        1.0,
        1.0
      ],
      "min": [
        0.0,
        0.0
      ],
      "type": "VEC2"
    },
    {
      "bufferView": 0,
      "byteOffset": 154500,
      "componentType": 5125,
      "count": 7080,
      "type": "SCALAR"
    },
    {
      "bufferView": 2,
      "byteOffset": 284256,
      "componentType": 5126,
      "count": 5368,
      "max": [
        84.1351089477539,
        81.21862030029297,
        223.83468627929688
      ],
      "min": [
        -110.4177474975586,
        -107.5776138305664,
        51.02803421020508
      ],
      "type": "VEC3"
    },
    {
      "bufferView": 2,
      "byteOffset": 348672,
      "componentType": 5126,
      "count": 5368,
      "max": [
        0.9998891353607178,
        0.9993698000907898,
        0.9936508536338806
      ],
      "min": [
        -0.9995633959770203,
        -0.9996468424797058,
        -0.9993197917938232
      ],
      "type": "VEC3"
    },
    {
      "bufferView": 1,
      "byteOffset": 305496,
      "componentType": 5126,
      "count": 5368,
      "max": [
        1.0,
        1.0
      ],
      "min": [
        0.0,
        0.0
      ],
      "type": "VEC2"
    },
    {
      "bufferView": 1,
      "byteOffset": 348440,
      "componentType": 5126,
      "count": 5368,
      "max": [
        1.0,
        1.0
      ],
      "min": [
        0.0,
        0.0
      ],
      "type": "VEC2"
    },
    {
      "bufferView": 1,
      "byteOffset": 391384,
      "componentType": 5126,
      "count": 5368,
      "max": [
        1.0,
        1.0
      ],
      "min": [
        0.0,
        0.0
      ],
      "type": "VEC2"
    },
    {
      "bufferView": 1,
      "byteOffset": 434328,
      "componentType": 5126,
      "count": 5368,
      "max": [
        1.0,
        1.0
      ],
      "min": [
        0.0,
        0.0
      ],
      "type": "VEC2"
    },
    {
      "bufferView": 0,
      "byteOffset": 182820,
      "componentType": 5125,
      "count": 14124,
      "type": "SCALAR"
    }
  ],
  "asset": {
    "extras": {
      "author": "xfrog (https://sketchfab.com/xfrog)",
      "license": "CC-BY-NC-ND-4.0 (http://creativecommons.org/licenses/by-nc-nd/4.0/)",
      "source": "https://sketchfab.com/3d-models/as08-ficus-elastica-rubber-fig-836da8349e3b451e996567df8a90fae1",
      "title": "AS08 Ficus Elastica (Rubber Fig)"
    },
    "generator": "Sketchfab-12.66.0",
    "version": "2.0"
  },
  "bufferViews": [
    {
      "buffer": 0,
      "byteLength": 239316,
      "name": "floatBufferViews",
      "target": 34963
    },
    {
      "buffer": 0,
      "byteLength": 477272,
      "byteOffset": 239316,
      "byteStride": 8,
      "name": "floatBufferViews",
      "target": 34962
    },
    {
      "buffer": 0,
      "byteLength": 413088,
      "byteOffset": 716588,
      "byteStride": 12,
      "name": "floatBufferViews",
      "target": 34962
    },
    {
      "buffer": 0,
      "byteLength": 42480,
      "byteOffset": 1129676,
      "byteStride": 16,
      "name": "floatBufferViews",
      "target": 34962
    }
  ],
  "buffers": [
    {
      "byteLength": 1172156,
      "uri": "scene.bin"
    }
  ],
  "extensionsUsed": [
    "KHR_materials_clearcoat"
  ],
  "images": [
    {
      "uri": "textures/Bark01_SHD_baseColor.png"
    },
    {
      "uri": "textures/Bark01_SHD_metallicRoughness.png"
    },
    {
      "uri": "textures/Branch01_SHD_baseColor.png"
    },
    {
      "uri": "textures/Branch01_SHD_metallicRoughness.png"
    },
    {
      "uri": "textures/Branch02_SHD_baseColor.png"
    },
    {
      "uri": "textures/Branch02_SHD_metallicRoughness.png"
    },
    {
      "uri": "textures/Branch03_SHD_baseColor.png"
    },
    {
      "uri": "textures/Branch03_SHD_metallicRoughness.png"
    },
    {
      "uri": "textures/Leaf01_su_SHD_baseColor.png"
    },
    {
      "uri": "textures/Leaf01_su_SHD_metallicRoughness.png"
    },
    {
      "uri": "textures/Leaf01_su_SHD_normal.png"
    },
    {
      "uri": "textures/Leaf03_su_SHD_baseColor.png"
    },
    {
      "uri": "textures/Leaf03_su_SHD_clearcoat_roughness.png"
    }
  ],
  "materials": [
    {
      "doubleSided": true,
      "name": "Bark01_SHD",
      "pbrMetallicRoughness": {
        "baseColorTexture": {
          "index": 0
        },
        "metallicFactor": 0.19588862435439547,
        "metallicRoughnessTexture": {
          "index": 1
        }
      }
    },
    {
      "doubleSided": true,
      "name": "Branch01_SHD",
      "pbrMetallicRoughness": {
        "baseColorTexture": {
          "index": 2
        },
        "metallicFactor": 0.9363506240873436,
        "metallicRoughnessTexture": {
          "index": 3
        }
      }
    },
    {
      "doubleSided": true,
      "name": "Branch02_SHD",
      "pbrMetallicRoughness": {
        "baseColorTexture": {
          "index": 4
        },
        "metallicFactor": 0.0,
        "metallicRoughnessTexture": {
          "index": 5
        }
      }
    },
    {
      "doubleSided": true,
      "name": "Branch03_SHD",
      "pbrMetallicRoughness": {
        "baseColorTexture": {
          "index": 6
        },
        "metallicRoughnessTexture": {
          "index": 7
        },
        "roughnessFactor": 0.8929713596
      }
    },
    {
      "alphaCutoff": 0.2509971483987864,
      "alphaMode": "MASK",
      "doubleSided": true,
      "name": "Leaf01_su_SHD",
      "normalTexture": {
        "index": 10
      },
      "pbrMetallicRoughness": {
        "baseColorTexture": {
          "index": 8
        },
        "metallicFactor": 0.46380320911539563,
        "metallicRoughnessTexture": {
          "index": 9
        },
        "roughnessFactor": 0.6279678845
      }
    },
    {
      "alphaCutoff": 0.22667645574545964,
      "alphaMode": "MASK",
      "doubleSided": true,
      "extensions": {
        "KHR_materials_clearcoat": {
          "clearcoatFactor": 0.03819108768217719,
          "clearcoatNormalTexture": {
            "index": 10,
            "scale": 0.4151618238087421
          },
          "clearcoatRoughnessFactor": 0.3239592263587667,
          "clearcoatRoughnessTexture": {
            "index": 12
          }
        }
      },
      "name": "Leaf03_su_SHD",
      "pbrMetallicRoughness": {
        "baseColorTexture": {
          "index": 11
        },
        "metallicFactor": 0.5306851139120442,
        "roughnessFactor": 0.8706063148678475
      }
    }
  ],
  "meshes": [
    {
      "name": "Bark01_1_Bark01_SHD_0",
      "primitives": [
        {
          "attributes": {
            "NORMAL": 1,
            "POSITION": 0,
            "TEXCOORD_0": 2,
            "TEXCOORD_1": 3,
            "TEXCOORD_2": 4
          },
          "indices": 5,
          "material": 0,
          "mode": 4
        }
      ]
    },
    {
      "name": "Branch01_1_Branch01_SHD_0",
      "primitives": [
        {
          "attributes": {
            "NORMAL": 7,
            "POSITION": 6,
            "TEXCOORD_0": 8,
            "TEXCOORD_1": 9,
            "TEXCOORD_2": 10
          },
          "indices": 11,
          "material": 1,
          "mode": 4
        }
      ]
    },
    {
      "name": "Branch02_1_Branch02_SHD_0",
      "primitives": [
        {
          "attributes": {
            "NORMAL": 13,
            "POSITION": 12,
            "TEXCOORD_0": 14,
            "TEXCOORD_1": 15,
            "TEXCOORD_2": 16
          },
          "indices": 17,
          "material": 2,
          "mode": 4
        }
      ]
    },
    {
      "name": "Branch03_1_Branch03_SHD_0",
      "primitives": [
        {
          "attributes": {
            "NORMAL": 19,
            "POSITION": 18,
            "TEXCOORD_0": 20,
            "TEXCOORD_1": 21,
            "TEXCOORD_2": 22
          },
          "indices": 23,
          "material": 3,
          "mode": 4
        }
      ]
    },
    {
      "name": "Leaf01_1_Leaf01_su_SHD_0",
      "primitives": [
        {
          "attributes": {
            "NORMAL": 25,
            "POSITION": 24,
            "TANGENT": 26,
            "TEXCOORD_0": 27,
            "TEXCOORD_1": 28,
            "TEXCOORD_2": 29,
            "TEXCOORD_3": 30
          },
          "indices": 31,
          "material": 4,
          "mode": 4
        }
      ]
    },
    {
      "name": "Leaf03_1_Leaf03_su_SHD_0",
      "primitives": [
        {
          "attributes": {
            "NORMAL": 33,
            "POSITION": 32,
            "TEXCOORD_0": 34,
            "TEXCOORD_1": 35,
            "TEXCOORD_2": 36,
            "TEXCOORD_3": 37
          },
          "indices": 38,
          "material": 5,
          "mode": 4
        }
      ]
    }
  ],
  "nodes": [
    {
      "children": [
        1
      ],
      "matrix": [
        1.0,
        0.0,
        0.0,
        0.0,
        0.0,
        2.220446049250313e-16,
        -1.0,
        0.0,
        0.0,
        1.0,
        2.220446049250313e-16,
        0.0,
        0.0,
        0.0,
        0.0,
        1.0
      ],
      "name": "Sketchfab_model"
    },
    {
      "children": [
        2
      ],
      "matrix": [
        1.0,
        0.0,
        0.0,
        0.0,
        0.0,
        0.0,
        1.0,
        0.0,
        0.0,
        -1.0,
        0.0,
        0.0,
        0.0,
        0.0,
        0.0,
        1.0
      ],
      "name": "FBX_AS08_FicusElastica_1.fbx"
    },
    {
      "children": [
        3
      ],
      "name": "RootNode"
    },
    {
      "children": [
        4,
        6,
        8,
        10,
        12,
        14
      ],
      "matrix": [
        1.0,
        0.0,
        0.0,
        0.0,
        0.0,
        2.220446049250313e-16,
        -1.0,
        0.0,
        0.0,
        1.0,
        2.220446049250313e-16,
        0.0,
        0.0,
        0.0,
        0.0,
        1.0
      ],
      "name": "FBX_AS08_FicusElastica_1"
    },
    {
      "children": [
        5
      ],
      "name": "Bark01_1"
    },
    {
      "mesh": 0,
      "name": "Bark01_1_Bark01_SHD_0"
    },
    {
      "children": [
        7
      ],
      "name": "Branch01_1"
    },
    {
      "mesh": 1,
      "name": "Branch01_1_Branch01_SHD_0"
    },
    {
      "children": [
        9
      ],
      "name": "Branch02_1"
    },
    {
      "mesh": 2,
      "name": "Branch02_1_Branch02_SHD_0"
    },
    {
      "children": [
        11
      ],
      "name": "Branch03_1"
    },
    {
      "mesh": 3,
      "name": "Branch03_1_Branch03_SHD_0"
    },
    {
      "children": [
        13
      ],
      "name": "Leaf01_1"
    },
    {
      "mesh": 4,
      "name": "Leaf01_1_Leaf01_su_SHD_0"
    },
    {
      "children": [
        15
      ],
      "name": "Leaf03_1"
    },
    {
      "mesh": 5,
      "name": "Leaf03_1_Leaf03_su_SHD_0"
    }
  ],
  "samplers": [
    {
      "magFilter": 9729,
      "minFilter": 9987,
      "wrapS": 10497,
      "wrapT": 10497
    }
  ],
  "scene": 0,
  "scenes": [
    {
      "name": "Sketchfab_Scene",
      "nodes": [
        0
      ]
    }
  ],
  "textures": [
    {
      "sampler": 0,
      "source": 0
    },
    {
      "sampler": 0,
      "source": 1
    },
    {
      "sampler": 0,
      "source": 2
    },
    {
      "sampler": 0,
      "source": 3
    },
    {
      "sampler": 0,
      "source": 4
    },
    {
      "sampler": 0,
      "source": 5
    },
    {
      "sampler": 0,
      "source": 6
    },
    {
      "sampler": 0,
      "source": 7
    },
    {
      "sampler": 0,
      "source": 8
    },
    {
      "sampler": 0,
      "source": 9
    },
    {
      "sampler": 0,
      "source": 10
    },
    {
      "sampler": 0,
      "source": 11
    },
    {
      "sampler": 0,
      "source": 12
    }
  ]
}
